<?xml version="1.0" encoding="UTF-8"?>
<svg width="590px" height="544px" viewBox="0 0 590 544" version="1.1" xmlns="http://www.w3.org/2000/svg" xmlns:xlink="http://www.w3.org/1999/xlink">
    <title>Logo Copy 2</title>
    <g id="Assets" stroke="none" stroke-width="1" fill="none" fill-rule="evenodd">
        <g id="MacBook-Pro-14&quot;" transform="translate(-800, -326)">
            <g id="Logo-Copy-2" transform="translate(800, 326)">
                <rect id="Rectangle" x="0" y="0" width="590" height="544"></rect>
                <path d="M238,118 L379,118 C417.659932,118 449,149.340068 449,188 C449,226.659932 417.659932,258 379,258 L142,258 L142,258 L142,214 C142,160.980664 184.980664,118 238,118 Z" id="Rectangle-Copy-4" fill="#1A1A1A" transform="translate(295.5, 188) scale(-1, -1) translate(-295.5, -188)"></path>
                <path d="M212,286 L449,286 L449,286 L449,330 C449,383.019336 406.019336,426 353,426 L212,426 C173.340068,426 142,394.659932 142,356 C142,317.340068 173.340068,286 212,286 Z" id="Rectangle-Copy-9" fill="#1A1A1A" transform="translate(295.5, 356) scale(-1, -1) translate(-295.5, -356)"></path>
            </g>
        </g>
    </g>
</svg>